/* XPM */
static char * srew6_xpm[] = {
"28 21 2 1",
".	c #FFFFFF",
"#	c #000000",
"............................",
".............####...######..",
"...........######...######..",
"..........#####.....######..",
"........######......######..",
".......#####........######..",
".....######.........######..",
"....#####...........######..",
"..######............######..",
"..######............######..",
"....#####...........######..",
".....######.........######..",
".......#####........######..",
"........######......######..",
"..........#####.....######..",
"..######...######...######..",
"..######.....####...######..",
"..######....................",
"..######...######...######..",
"..######...######...######..",
"............................"};

