/* XPM */
static char * time_xpm[] = {
"16 16 3 1",
" 	c None",
".	c #060905",
"+	c #888A87",
"+++++......+++++",
"+++..++..++..+++",
"+++++++..+++++++",
"+.+++++..+++++.+",
"+.+++++..+++++.+",
"+++++++..+++++++",
".++++++..++++++.",
"..+++++......+..",
"..+++++......+..",
".++++++++++++++.",
"++++++++++++++++",
"+.++++++++++++.+",
"+.++++++++++++.+",
"++++++++++++++++",
"+++..++..++..+++",
"++++++....++++++"};
