#define dummy_width 64
#define dummy_height 64
#define dummy_x_hot 32
#define dummy_y_hot 53
static char dummy_bits[] = {
 0x00,0x00,0x00,0x00,0x00,0x00,0x00,0x00,0x00,0x00,0x00,0x00,0x00,0x00,0x00,
 0x00,0x00,0x00,0x00,0x00,0x00,0x00,0x00,0x00,0x00,0x00,0x00,0x00,0x00,0x00,
 0x00,0x00,0x00,0x00,0x00,0x00,0x00,0x00,0x00,0x00,0x00,0x00,0x00,0x00,0x00,
 0x00,0x00,0x00,0x00,0x00,0x00,0x00,0x00,0x00,0x00,0x00,0x00,0x00,0x00,0x00,
 0x00,0x00,0x00,0x00,0x00,0x00,0xc0,0xff,0xff,0x07,0x00,0x00,0x00,0x00,0xc0,
 0xff,0xff,0x07,0x00,0x00,0x00,0x00,0xc0,0xff,0xff,0x07,0x00,0x00,0x00,0x00,
 0xc0,0xff,0xff,0x07,0x00,0x00,0x00,0x00,0xc0,0xff,0xff,0x07,0x00,0x00,0x00,
 0x00,0xc0,0xff,0xff,0x07,0x00,0x00,0x00,0x00,0xc0,0xff,0xff,0x07,0x00,0x00,
 0x00,0x00,0xc0,0xff,0xff,0x07,0x00,0x00,0x00,0x00,0xc0,0xff,0xff,0x07,0x00,
 0x00,0x00,0x00,0xc0,0xff,0xff,0x07,0x00,0x00,0x00,0x00,0xc0,0xff,0xff,0x07,
 0x00,0x00,0x00,0x00,0xc0,0xff,0xff,0x07,0x00,0x00,0x00,0x00,0xc0,0xff,0xff,
 0x07,0x00,0x00,0x00,0x00,0xc0,0xff,0xff,0x07,0x00,0x00,0x00,0x00,0xc0,0xff,
 0xff,0x07,0x00,0x00,0x00,0x00,0xc0,0xff,0xff,0x07,0x00,0x00,0x00,0x00,0xc0,
 0xff,0xff,0x07,0x00,0x00,0x00,0xe0,0xff,0xff,0xff,0xff,0x0f,0x00,0x00,0xc0,
 0xff,0xff,0xff,0xff,0x0f,0x00,0x00,0xc0,0xff,0xff,0xff,0xff,0x07,0x00,0x00,
 0x80,0xff,0xff,0xff,0xff,0x03,0x00,0x00,0x00,0xff,0xff,0xff,0xff,0x01,0x00,
 0x00,0x00,0xff,0xff,0xff,0xff,0x01,0x00,0x00,0x00,0xfe,0xff,0xff,0xff,0x00,
 0x00,0x00,0x00,0xfc,0xff,0xff,0xff,0x00,0x00,0x00,0x00,0xfc,0xff,0xff,0x7f,
 0x00,0x00,0x00,0x00,0xf8,0xff,0xff,0x3f,0x00,0x00,0x00,0x00,0xf0,0xff,0xff,
 0x3f,0x00,0x00,0x00,0x00,0xf0,0xff,0xff,0x1f,0x00,0x00,0x00,0x00,0xe0,0xff,
 0xff,0x0f,0x00,0x00,0x00,0x00,0xc0,0xff,0xff,0x07,0x00,0x00,0x00,0x00,0xc0,
 0xef,0xef,0x07,0x00,0x00,0x00,0x00,0x80,0xcf,0xe7,0x03,0x00,0x00,0x00,0x00,
 0x00,0x9f,0xf3,0x01,0x00,0x00,0x00,0x00,0x00,0x3e,0xf9,0x01,0x00,0x00,0x00,
 0x00,0x00,0x7e,0xfc,0x00,0x00,0x00,0x00,0x00,0x00,0xec,0x6e,0x00,0x00,0x00,
 0x00,0x00,0x00,0xcc,0x67,0x00,0x00,0x00,0x00,0x00,0x00,0x98,0x33,0x00,0x00,
 0x00,0x00,0x00,0x00,0x30,0x39,0x00,0x00,0x00,0x00,0x00,0x00,0x70,0x1c,0x00,
 0x00,0x00,0x00,0x00,0x00,0xe0,0x0e,0x00,0x00,0x00,0x00,0x00,0x00,0xc0,0x07,
 0x00,0x00,0x00,0x00,0x00,0x00,0xc0,0x07,0x00,0x00,0x00,0x00,0x00,0x00,0x80,
 0x03,0x00,0x00,0x00,0x00,0x00,0x00,0x00,0x01,0x00,0x00,0x00,0x00,0x00,0x00,
 0x00,0x01,0x00,0x00,0x00,0x00,0x00,0x00,0x00,0x00,0x00,0x00,0x00,0x00,0x00,
 0x00,0x00,0x00,0x00,0x00,0x00,0x00,0x00,0x00,0x00,0x00,0x00,0x00,0x00,0x00,
 0x00,0x00,0x00,0x00,0x00,0x00,0x00,0x00,0x00,0x00,0x00,0x00,0x00,0x00,0x00,
 0x00,0x00,0x00,0x00,0x00,0x00,0x00,0x00,0x00,0x00,0x00,0x00,0x00,0x00,0x00,
 0x00,0x00,0x00,0x00,0x00,0x00,0x00,0x00,0x00,0x00,0x00,0x00,0x00,0x00,0x00,
 0x00,0x00 };
