/* XPM */
static char * debian_xpm[] = {
"48 20 17 1",
" 	c None",
".	c #0B090A",
"+	c #8E8E8E",
"@	c #E3CFCC",
"#	c #504E4D",
"$	c #FCFAF9",
"%	c #B0AFB0",
"&	c #A7462E",
"*	c #CC1458",
"=	c #EA6F44",
"-	c #3A332F",
";	c #903A14",
">	c #747474",
",	c #EB8E7A",
"'	c #DB535E",
")	c #EEB0B1",
"!	c #CE366F",
"    %@     @+    @!@                 @,'=,,     ",
"    .%     +.    @!@                =*******')  ",
"  @@.%  @@ +. @       @@     @@    !**'@  @=**, ",
">.--.@#.#-#+.#..%@.%%.-..@%.#-.#  '*'       )**)",
"->  .%.+ %.+.% --@.% @  .@%.+ ## )*,         ,*,",
".+  .%.>+>.>.  >. .%@+>#.@@.@ #- !,     ))@   *)",
".+  .%.#+>++.  >. .%#-@%.%@.@ #-)*@    ,@     !)",
".# @.%.+   +.  >#@.%-> @.@%.@ ##,'    )       !,",
"-.%>.%--@@%+. @-% .%--%#.%@.@ #-,=    ,       !)",
"%#-+#%@#-##%#--+ @#%@#-%#@%#@ >>,,    '    @  !@",
"                     @ @@@@@)@  ,,    =@     =) ",
"      @ @@)@@))),,========'==',@,'    @)   @=,  ",
"    @)),,=,=,======&;;.''=';;-;),!@    )=)='%   ",
"   ),,========='='=.-=.&=''.;;.@)*'     @)@     ",
" @),,==='='=='===,,===.=,,,=,&-  **@            ",
" @,,==='=====,,)@   @-%     %-@  ,*,            ",
"@),========,,@      >% @@@ @>@%   !*@           ",
"@,,=====,,)@@      >.#-%#. .-#-    !!@          ",
" ),,,,,),)         @%%%@ % %%%%     =!)         ",
"  @@@@@@@                            @))@       "};
