#define standard_big_b_width 200
#define standard_big_b_height 200
static char standard_big_b_bits[] = {
 0x00,0x00,0x00,0x00,0x00,0x00,0x00,0x00,0x00,0x00,0x00,0x00,0x00,0x00,0x00,
 0x00,0x00,0x00,0x00,0x00,0x00,0x00,0x00,0x00,0x00,0x00,0x00,0x00,0x00,0x00,
 0x00,0x00,0x00,0x00,0x00,0x00,0x00,0x00,0x00,0x00,0x00,0x00,0x00,0x00,0x00,
 0x00,0x00,0x00,0x00,0x00,0x00,0x00,0x00,0x00,0x00,0x00,0x00,0x00,0x00,0x00,
 0x00,0x00,0x00,0x00,0x00,0x00,0x00,0x00,0x00,0x00,0x00,0x00,0x00,0x00,0x00,
 0x00,0x00,0x00,0x00,0x00,0x00,0x00,0x00,0x00,0x00,0x00,0x00,0x00,0x00,0x00,
 0x00,0x00,0x00,0x00,0x00,0x00,0x00,0x00,0x00,0x00,0x00,0x00,0x00,0x00,0x00,
 0x00,0x00,0x00,0x00,0x00,0x00,0x00,0x00,0x00,0x00,0x00,0x00,0x00,0x00,0x00,
 0x00,0x00,0x00,0x00,0x00,0x00,0x00,0x00,0x48,0x6b,0xad,0xb5,0xd6,0x02,0x00,
 0x00,0x00,0x00,0x00,0x00,0x00,0x00,0x00,0x00,0x00,0x00,0x00,0x00,0x00,0x00,
 0x00,0x00,0x00,0xaa,0xda,0x5a,0x6b,0xad,0x0d,0x00,0x00,0x00,0x00,0x00,0x00,
 0x00,0x00,0x00,0x00,0x00,0x00,0x00,0x00,0x00,0x00,0x00,0x00,0x00,0x2a,0xb5,
 0xb5,0xd6,0x5a,0x0b,0x00,0x00,0x00,0x00,0x00,0x00,0x00,0x00,0x00,0x00,0x00,
 0x00,0x00,0x00,0x00,0x00,0x00,0x00,0x00,0x6c,0xae,0xd6,0xad,0xb5,0x36,0x00,
 0x00,0x00,0x00,0x00,0x00,0x00,0x00,0x00,0x00,0x00,0x00,0x00,0x00,0x00,0x00,
 0x00,0x00,0x00,0xdb,0x68,0xad,0x5a,0x6b,0x2d,0x00,0x00,0x00,0x00,0x00,0x00,
 0x00,0x00,0x00,0x00,0x00,0x00,0x00,0x00,0x00,0x00,0x00,0x00,0x00,0xaa,0xab,
 0xb5,0xb5,0xd6,0xea,0x00,0x00,0x00,0x00,0x00,0x00,0x00,0x00,0x00,0x00,0x00,
 0x00,0x00,0x00,0x00,0x00,0x00,0x00,0x00,0x6d,0x52,0x6b,0x6d,0x5d,0x5b,0x01,
 0x00,0x00,0x00,0x00,0x00,0x00,0x00,0x00,0x00,0x00,0x00,0x00,0x00,0x00,0x00,
 0x00,0x00,0x00,0xdb,0xed,0x56,0xab,0xb3,0x56,0x01,0x00,0x00,0x00,0x00,0x00,
 0x00,0x00,0x00,0x00,0x00,0x00,0x00,0x00,0x00,0x00,0x00,0x00,0x00,0x2a,0x5b,
 0xed,0x5a,0x6d,0xb5,0x03,0x00,0x00,0x00,0x00,0x00,0x00,0x00,0x00,0x00,0x00,
 0x00,0x00,0x00,0x00,0x00,0x00,0x00,0x00,0xed,0xaa,0x5a,0xb5,0xda,0x6e,0x0e,
 0x00,0x00,0x00,0x00,0x00,0x00,0x00,0x00,0x00,0x00,0x00,0x00,0x00,0x00,0x00,
 0x00,0x00,0x00,0x5b,0xb5,0x55,0xd7,0x55,0xd5,0x15,0x00,0x00,0x00,0x00,0x00,
 0x00,0x00,0x00,0x00,0x00,0x00,0x00,0x00,0x00,0x00,0x00,0x00,0x00,0xaa,0x6d,
 0xdb,0x5a,0xdb,0x36,0x15,0x00,0x00,0x00,0x00,0x00,0x00,0x00,0x00,0x00,0x00,
 0x00,0x00,0x00,0x00,0x00,0x00,0x00,0x00,0xb5,0x5a,0xb5,0xd6,0xb6,0xed,0x76,
 0x00,0x00,0x00,0x00,0x00,0x00,0x00,0x00,0x00,0x00,0x00,0x00,0x00,0x00,0x00,
 0x00,0x00,0x00,0x6b,0xd7,0xae,0xb5,0xaa,0xaa,0xaa,0x00,0x00,0x00,0x00,0x00,
 0x00,0x00,0x00,0x00,0x00,0x00,0x00,0x00,0x00,0x00,0x00,0x00,0x00,0xae,0xaa,
 0x55,0xad,0x6d,0x5b,0xb7,0x00,0x00,0x00,0x00,0x00,0x00,0x00,0x00,0x00,0x00,
 0x00,0x00,0x00,0x00,0x00,0x00,0x00,0x00,0xd9,0xb6,0xda,0x6a,0xd5,0x6a,0xad,
 0x03,0x00,0x00,0x00,0x00,0x00,0x00,0x00,0x00,0x00,0x00,0x00,0x00,0x00,0x00,
 0x00,0x00,0x00,0xb7,0x6d,0xab,0x5b,0x5b,0xad,0x55,0x05,0x00,0x00,0x00,0x00,
 0x00,0x00,0x00,0x00,0x00,0x00,0x00,0x00,0x00,0x00,0x00,0x00,0x00,0xaa,0xaa,
 0x76,0xb5,0xb6,0x5b,0xed,0x0a,0x00,0x00,0x00,0x00,0x00,0x00,0x00,0x00,0x00,
 0x00,0x00,0x00,0x00,0x00,0x00,0x00,0x00,0xd5,0xb6,0xad,0xd6,0x55,0xb5,0x5b,
 0x0b,0x00,0x00,0x00,0x00,0x00,0x00,0x00,0x00,0x00,0x00,0x00,0x00,0x00,0x00,
 0x00,0x00,0x00,0xbd,0x55,0xd5,0x5a,0x6d,0x6d,0xaa,0x36,0x00,0x00,0x00,0x00,
 0x00,0x00,0x00,0x00,0x00,0x00,0x00,0x00,0x00,0x00,0x00,0x00,0x00,0xa5,0xda,
 0xb6,0xb5,0x5a,0xab,0x6d,0x2d,0x00,0x00,0x00,0x00,0x00,0x00,0x00,0x00,0x00,
 0x00,0x00,0x00,0x00,0x00,0x00,0x00,0x00,0x5d,0xb7,0xad,0xd6,0xd6,0x5a,0xdb,
 0xea,0x00,0x00,0x00,0x00,0x00,0x00,0x00,0x00,0x00,0x00,0x00,0x00,0x00,0x00,
 0x00,0x00,0x00,0xea,0x54,0xd5,0x5a,0xb5,0xd6,0xaa,0x5d,0x01,0x00,0x00,0x00,
 0x00,0x00,0x00,0x00,0x00,0x00,0x00,0x00,0x00,0x00,0x00,0x00,0x00,0x5b,0xdb,
 0xb6,0xb5,0xab,0xb5,0xb6,0xaa,0x02,0x00,0x00,0x00,0x00,0x00,0x00,0x00,0x00,
 0x00,0x00,0x00,0x00,0x00,0x00,0x00,0x00,0xd6,0xb6,0xad,0x56,0x6d,0xad,0xad,
 0xb5,0x05,0x00,0x00,0x00,0x00,0x00,0x00,0x00,0x00,0x00,0x00,0x00,0x00,0x00,
 0x00,0x00,0x00,0xb5,0xaa,0x6a,0x6d,0x5b,0x6b,0x55,0x6b,0x0b,0x00,0x00,0x00,
 0x00,0x00,0x00,0x00,0x00,0x00,0x00,0x00,0x00,0x00,0x00,0x00,0x00,0xad,0x6d,
 0xdb,0xda,0x6a,0x5d,0xbb,0xae,0x0a,0x00,0x00,0x00,0x00,0x00,0x00,0x00,0x00,
 0x00,0x00,0x00,0x00,0x00,0x00,0x00,0x00,0x6b,0x5b,0x55,0xab,0xd6,0xaa,0x66,
 0xb5,0x3d,0x00,0x00,0x00,0x00,0x00,0x00,0x00,0x00,0x00,0x00,0x00,0x00,0x00,
 0x00,0x00,0x00,0x5a,0xd5,0xb6,0xb6,0xad,0x75,0xdd,0x6a,0x4b,0x00,0x00,0x00,
 0x00,0x00,0x00,0x00,0x00,0x00,0x00,0x00,0x00,0x00,0x00,0x00,0x00,0xd5,0xb6,
 0x6d,0x6d,0xb5,0xce,0x55,0x57,0xb5,0x00,0x00,0x00,0x00,0x00,0x00,0x00,0x00,
 0x00,0x00,0x00,0x00,0x00,0x00,0x00,0x00,0xbb,0x55,0xd5,0xaa,0xd6,0x3a,0x6b,
 0x6d,0x6b,0x01,0x00,0x00,0x00,0x00,0x00,0x00,0x00,0x00,0x00,0x00,0x00,0x00,
 0x00,0x00,0x00,0x56,0x6d,0x5b,0xdb,0x5a,0xeb,0xda,0xda,0xd6,0x02,0x00,0x00,
 0x00,0x00,0x00,0x00,0x00,0x00,0x00,0x00,0x00,0x00,0x00,0x00,0x00,0xd5,0xda,
 0xaa,0xb6,0xb5,0xaa,0x56,0xab,0xba,0x02,0x00,0x00,0x00,0x00,0x00,0x00,0x00,
 0x00,0x00,0x00,0x00,0x00,0x00,0x00,0x00,0xad,0x55,0xed,0xaa,0xd6,0x56,0x6d,
 0xb5,0x55,0x0f,0x00,0x00,0x00,0x00,0x00,0x00,0x00,0x00,0x00,0x00,0x00,0x00,
 0x00,0x00,0x00,0x75,0xdb,0x5a,0x5b,0xad,0xed,0xda,0x6e,0x6d,0x09,0x00,0x00,
 0x00,0x00,0x00,0x00,0x00,0x00,0x00,0x00,0x00,0x00,0x00,0x00,0x00,0xad,0xb6,
 0xd5,0xb6,0x5b,0x55,0xab,0x55,0xdb,0x36,0x00,0x00,0x00,0x00,0x00,0x00,0x00,
 0x00,0x00,0x00,0x00,0x00,0x00,0x00,0x00,0x55,0x55,0xbb,0x6a,0xb5,0xdd,0xb6,
 0x6a,0x55,0x2d,0x00,0x00,0x00,0x00,0x00,0x00,0x00,0x00,0x00,0x00,0x00,0x00,
 0x00,0x00,0x00,0xed,0xb6,0x56,0x5b,0x6d,0xab,0xaa,0x5d,0xdb,0xda,0x00,0x00,
 0x00,0x00,0x00,0x00,0x00,0x00,0x00,0x00,0x00,0x00,0x00,0x00,0x00,0x55,0x6d,
 0xd5,0xd6,0xaa,0xda,0x76,0xd3,0xb6,0xb5,0x01,0x00,0x00,0x00,0x00,0x00,0x00,
 0x00,0x00,0x00,0x00,0x00,0x00,0x00,0x00,0xdd,0xaa,0xad,0xaa,0x6d,0xab,0x4d,
 0xad,0x55,0x6b,0x01,0x00,0x00,0x00,0x00,0x00,0x00,0x00,0x00,0x00,0x00,0x00,
 0x00,0x00,0x00,0xb5,0x6d,0xdb,0xb6,0x5a,0x6d,0xb5,0xba,0x6a,0x5d,0x07,0x00,
 0x00,0x00,0x00,0x00,0x00,0x00,0x00,0x00,0x00,0x00,0x00,0x00,0x00,0xad,0x5a,
 0x55,0x6d,0xd7,0x5a,0xeb,0xd5,0x5e,0xab,0x0a,0x00,0x00,0x00,0x00,0x00,0x00,
 0x00,0x00,0x00,0x00,0x00,0x00,0x00,0x00,0x55,0xd7,0x96,0xd5,0xaa,0xd5,0x56,
 0x5b,0xd5,0x6a,0x15,0x00,0x00,0x00,0x00,0x00,0x00,0x00,0x00,0x00,0x00,0x00,
 0x00,0x00,0x00,0xed,0xaa,0x35,0x5b,0x6d,0x5b,0xad,0xd6,0xaa,0xd6,0x2e,0x00,
 0x00,0x00,0x00,0x00,0x00,0x00,0x00,0x00,0x00,0x00,0x00,0x00,0x00,0x55,0x6d,
 0xad,0xb4,0x55,0xb5,0x75,0xb5,0x6d,0x5d,0x55,0x00,0x00,0x00,0x00,0x00,0x00,
 0x00,0x00,0x00,0x00,0x00,0x00,0x00,0x00,0x6d,0x5b,0x2b,0x55,0xbb,0x6d,0xad,
 0xad,0xda,0x6a,0xdb,0x00,0x00,0x00,0x00,0x00,0x00,0x00,0x00,0x00,0x00,0x00,
 0x00,0x00,0x00,0xd5,0xaa,0x9a,0x68,0x55,0xab,0x55,0x6b,0x57,0xdb,0xb6,0x00,
 0x00,0x00,0x00,0x00,0x00,0x00,0x00,0x00,0x00,0x00,0x00,0x00,0x00,0x5d,0xed,
 0x56,0xaa,0x6d,0x6d,0xdb,0xda,0x6a,0x55,0x55,0x03,0x00,0x00,0x00,0x00,0x00,
 0x00,0x00,0x00,0x00,0x00,0x00,0x00,0x00,0xd5,0x5a,0x95,0x52,0xdb,0x5a,0xb5,
 0x56,0xad,0xdb,0xb6,0x02,0x00,0x00,0x00,0x00,0x00,0x00,0x00,0x00,0x00,0x00,
 0x00,0x00,0x00,0xb5,0xd5,0xae,0xa4,0xaa,0xd5,0xd6,0x6a,0x5b,0xb5,0x6d,0x0f,
 0x00,0x00,0x00,0x00,0x00,0x00,0x00,0x00,0x00,0x00,0x00,0x00,0x00,0xad,0xae,
 0x55,0x4a,0x5b,0x5b,0xad,0xdd,0x6a,0xab,0xaa,0x0a,0x00,0x00,0x00,0x00,0x00,
 0x00,0x00,0x00,0x00,0x00,0x00,0x00,0x00,0xb5,0xb5,0x9a,0x90,0x6a,0xb5,0xb5,
 0xaa,0xd6,0xb6,0xd5,0x7a,0x00,0x00,0x00,0x00,0x00,0x00,0x00,0x00,0x00,0x00,
 0x00,0x00,0x00,0x6a,0x6d,0x2b,0x55,0x5a,0x6b,0x6b,0x5b,0xad,0x6a,0xbb,0x55,
 0x00,0x00,0x00,0x00,0x00,0x00,0x00,0x00,0x00,0x00,0x00,0x00,0x00,0x56,0xab,
 0x56,0x25,0xd5,0x56,0xad,0xd6,0xb5,0x5d,0x55,0xab,0x01,0x00,0x00,0x00,0x00,
 0x00,0x00,0x00,0x00,0x00,0x00,0x00,0x00,0x6c,0xd5,0x9a,0x48,0xb4,0xda,0xda,
 0xaa,0x56,0xab,0x6d,0xdd,0x02,0x00,0x00,0x00,0x00,0x00,0x00,0x00,0x00,0x00,
 0x00,0x00,0x00,0xda,0xae,0x35,0x95,0xd2,0xb6,0xb5,0xdd,0xba,0x6a,0x5b,0xab,
 0x05,0x00,0x00,0x00,0x00,0x00,0x00,0x00,0x00,0x00,0x00,0x00,0x00,0xaa,0xb9,
 0x4e,0xa2,0xa4,0x55,0xab,0xaa,0xd5,0x5d,0xd5,0x5a,0x0d,0x00,0x00,0x00,0x00,
 0x00,0x00,0x00,0x00,0x00,0x00,0x00,0x00,0x5a,0x67,0xb5,0x14,0x49,0x6d,0x6d,
 0x5b,0xab,0xaa,0xad,0xb6,0x15,0x00,0x00,0x00,0x00,0x00,0x00,0x00,0x00,0x00,
 0x00,0x00,0x00,0x6a,0xdd,0x2a,0xa9,0x92,0xda,0xda,0xb6,0xb6,0x75,0xdb,0x55,
 0x2b,0x00,0x00,0x00,0x00,0x00,0x00,0x00,0x00,0x00,0x00,0x00,0x00,0x5a,0x55,
 0x57,0x22,0x55,0x55,0xab,0x6a,0x6d,0xab,0xaa,0xda,0x56,0x00,0x00,0x00,0x00,
 0x00,0x00,0x00,0x00,0x00,0x00,0x00,0x00,0x6a,0xab,0x9a,0x4c,0x88,0xda,0xb6,
 0xad,0x55,0x6d,0x6d,0xb7,0xba,0x00,0x00,0x00,0x00,0x00,0x00,0x00,0x00,0x00,
 0x00,0x00,0x00,0xda,0x76,0x2b,0x91,0x52,0xb4,0x6a,0x6b,0xdb,0x5a,0xdb,0x54,
 0xab,0x01,0x00,0x00,0x00,0x00,0x00,0x00,0x00,0x00,0x00,0x00,0x00,0xaa,0xaa,
 0x56,0xa5,0x4a,0x55,0x5b,0x55,0xb5,0xd5,0x56,0xdb,0x56,0x01,0x00,0x00,0x00,
 0x00,0x00,0x00,0x00,0x00,0x00,0x00,0x00,0x6d,0xdb,0x5a,0x2a,0x94,0x68,0xd5,
 0x6e,0xab,0xae,0xb5,0xb6,0xba,0x07,0x00,0x00,0x00,0x00,0x00,0x00,0x00,0x00,
 0x00,0x00,0x00,0xd5,0xb6,0x95,0x48,0x21,0xc5,0xae,0xd9,0xb6,0x75,0xad,0xd5,
 0x66,0x0a,0x00,0x00,0x00,0x00,0x00,0x00,0x00,0x00,0x00,0x00,0x00,0xad,0xaa,
 0x36,0x25,0x4d,0xaa,0x5a,0x57,0x6d,0xaa,0x6a,0xad,0xdd,0x15,0x00,0x00,0x00,
 0x00,0x00,0x00,0x00,0x00,0x00,0x00,0x00,0xb5,0x6d,0xad,0x4a,0x92,0x90,0xb6,
 0x6a,0xab,0x5a,0x5b,0x5b,0x55,0x2d,0x00,0x00,0x00,0x00,0x00,0x00,0x00,0x00,
 0x00,0x00,0x00,0x6d,0xab,0x55,0x90,0xa4,0x26,0xd5,0xda,0x5a,0xd5,0xd6,0x6a,
 0xab,0x5a,0x00,0x00,0x00,0x00,0x00,0x00,0x00,0x00,0x00,0x00,0x00,0x55,0xb5,
 0x96,0xa6,0x4a,0x48,0xaa,0xb5,0xd6,0xaa,0xb5,0xd6,0xda,0x55,0x00,0x00,0x00,
 0x00,0x00,0x00,0x00,0x00,0x00,0x00,0x00,0x6d,0x6b,0xad,0x28,0x91,0xaa,0x5c,
 0xab,0xb5,0x72,0xad,0xad,0xb6,0xb6,0x01,0x00,0x00,0x00,0x00,0x00,0x00,0x00,
 0x00,0x00,0x00,0xd5,0xd6,0x5a,0x45,0xaa,0x12,0xb1,0x6e,0xad,0x45,0x6b,0xb5,
 0x55,0x6d,0x03,0x00,0x00,0x00,0x00,0x00,0x00,0x00,0x00,0x00,0x00,0x5d,0xad,
 0x15,0xaa,0x14,0x49,0x65,0x55,0x6b,0x5b,0xd5,0x56,0xdb,0xd5,0x02,0x00,0x00,
 0x00,0x00,0x00,0x00,0x00,0x00,0x00,0x00,0xd5,0x5a,0xb7,0x08,0xa9,0x94,0xd4,
 0xda,0x5a,0x95,0xae,0xed,0xb6,0xb6,0x0e,0x00,0x00,0x00,0x00,0x00,0x00,0x00,
 0x00,0x00,0x00,0xb5,0xb5,0xaa,0x52,0x55,0x21,0x89,0xb5,0xd6,0x6e,0x75,0x55,
 0x55,0xad,0x09,0x00,0x00,0x00,0x00,0x00,0x00,0x00,0x00,0x00,0x00,0xad,0xd6,
 0x56,0x2a,0xa9,0xaa,0x52,0xae,0xb5,0x55,0xaa,0xda,0xda,0x6a,0x37,0x00,0x00,
 0x00,0x00,0x00,0x00,0x00,0x00,0x00,0x00,0xb5,0xad,0xad,0x44,0xaa,0x14,0x25,
 0x55,0xad,0xda,0xac,0xb5,0xb6,0xad,0x6c,0x00,0x00,0x00,0x00,0x00,0x00,0x00,
 0x00,0x00,0x00,0x6d,0x75,0x15,0xa9,0x54,0xa5,0x48,0xba,0x6b,0xab,0x69,0xaf,
 0x55,0xdb,0xab,0x00,0x00,0x00,0x00,0x00,0x00,0x00,0x00,0x00,0x00,0x55,0xab,
 0xb6,0x12,0xa9,0x4a,0x92,0x6a,0xd5,0xb6,0xd6,0x54,0xdb,0xaa,0x5a,0x01,0x00,
 0x00,0x00,0x00,0x00,0x00,0x00,0x00,0x00,0x6d,0xad,0x2d,0xa5,0xaa,0x2a,0xa5,
 0xa8,0xae,0x6a,0x55,0xbb,0xb6,0xb6,0xd6,0x02,0x00,0x00,0x00,0x00,0x00,0x00,
 0x00,0x00,0x00,0xd5,0x5a,0xab,0x48,0x54,0x95,0x14,0xa5,0xd9,0xd6,0x6a,0xd5,
 0xaa,0xd5,0xaa,0x05,0x00,0x00,0x00,0x00,0x00,0x00,0x00,0x00,0x00,0xad,0x75,
 0x35,0x95,0xaa,0x2a,0xa9,0x54,0xb7,0xad,0xdd,0xb6,0x6d,0xad,0x5d,0x0b,0x00,
 0x00,0x00,0x00,0x00,0x00,0x00,0x00,0x00,0x75,0xab,0xad,0x28,0xa9,0x6a,0x22,
 0x49,0x55,0xb5,0xaa,0xad,0x5a,0x5b,0x73,0x15,0x00,0x00,0x00,0x00,0x00,0x00,
 0x00,0x00,0x00,0xad,0x56,0x2b,0x45,0xaa,0xaa,0x4a,0x92,0xda,0xd6,0xb6,0x6a,
 0xab,0x6a,0xad,0x2e,0x00,0x00,0x00,0x00,0x00,0x00,0x00,0x00,0x00,0x55,0x6d,
 0x55,0x52,0xa9,0xaa,0x92,0x2a,0xb5,0xb5,0xad,0xad,0x76,0xdb,0x6a,0x55,0x00,
 0x00,0x00,0x00,0x00,0x00,0x00,0x00,0x00,0xed,0xda,0xae,0x94,0xaa,0xaa,0xaa,
 0x44,0xad,0x6a,0x55,0x6b,0xcd,0x56,0xd7,0xb6,0x00,0x00,0x00,0x00,0x00,0x00,
 0x00,0x00,0x00,0x55,0xab,0x59,0x49,0xa8,0xaa,0x12,0x29,0x6a,0x57,0xbb,0xda,
 0xba,0x6a,0xad,0x6d,0x01,0x00,0x00,0x00,0x00,0x00,0x00,0x00,0x00,0xdd,0xb6,
 0x16,0x92,0xaa,0xaa,0xa6,0x52,0xd1,0xdc,0x66,0xab,0x55,0xdb,0x5a,0x55,0x03,
 0x00,0x00,0x00,0x00,0x00,0x00,0x00,0x00,0xb5,0x6a,0x6d,0x25,0xa9,0xaa,0x5a,
 0x84,0xaa,0xb3,0xda,0xb6,0xd6,0xb6,0xb6,0x6d,0x05,0x00,0x00,0x00,0x00,0x00,
 0x00,0x00,0x00,0x55,0x5b,0x9b,0xa8,0xaa,0x5a,0x25,0x29,0x52,0xae,0xb5,0x6a,
 0xad,0x55,0x55,0xdb,0x0a,0x00,0x00,0x00,0x00,0x00,0x00,0x00,0x00,0x6d,0xd5,
 0x2a,0x45,0x54,0x55,0x55,0x55,0xc5,0x69,0xab,0x5d,0x5b,0x6d,0xdb,0xaa,0x16,
 0x00,0x00,0x00,0x00,0x00,0x00,0x00,0x00,0xd5,0xae,0xad,0x2a,0xa9,0xaa,0xaa,
 0xa2,0x28,0x56,0x6d,0xab,0xb6,0xd5,0xb6,0xd6,0x2a,0x00,0x00,0x00,0x00,0x00,
 0x00,0x00,0x00,0xad,0xb5,0x5a,0x48,0x55,0x55,0x55,0x15,0x45,0xdd,0x5a,0xd5,
 0x55,0x5b,0x55,0xad,0x5d,0x00,0x00,0x00,0x00,0x00,0x00,0x00,0x00,0x75,0x6d,
 0xab,0x92,0xa8,0xaa,0xaa,0xa2,0x28,0xb5,0xd5,0xb6,0xea,0xb6,0xed,0x5a,0xab,
 0x00,0x00,0x00,0x00,0x00,0x00,0x00,0x00,0xad,0xaa,0x56,0x2a,0x55,0x55,0x55,
 0x4d,0x55,0xaa,0xae,0xad,0x5d,0x55,0x9b,0x75,0xb5,0x01,0x00,0x00,0x00,0x00,
 0x00,0x00,0x00,0xd5,0xb6,0xad,0x44,0xaa,0xaa,0xaa,0x12,0x89,0xd0,0x5a,0xb5,
 0xaa,0xda,0x6a,0xab,0x6d,0x01,0x00,0x00,0x00,0x00,0x00,0x00,0x00,0xad,0x6d,
 0x35,0xa9,0xa8,0xaa,0x5a,0xad,0x52,0x55,0x6b,0x6b,0xdb,0xb5,0xd6,0x56,0xab,
 0x06,0x00,0x00,0x00,0x00,0x00,0x00,0x00,0x75,0x55,0xab,0x12,0x55,0x55,0x55,
 0x55,0x24,0xaa,0xda,0xd6,0xb6,0xae,0xad,0xba,0xda,0x0a,0x00,0x00,0x00,0x00,
 0x00,0x00,0x00,0xad,0xb6,0x56,0xa4,0x52,0xad,0xaa,0xaa,0x4a,0x41,0x57,0xad,
 0xaa,0x55,0xb5,0xd5,0xb6,0x0d,0x00,0x00,0x00,0x00,0x00,0x00,0x00,0xd5,0x6a,
 0x2d,0x29,0xa9,0xaa,0x55,0x55,0x91,0x9a,0x6a,0xdb,0x56,0x75,0x6b,0xab,0x55,
 0x3b,0x00,0x00,0x00,0x00,0x00,0x00,0x00,0xad,0xad,0xb5,0x4a,0xaa,0xaa,0xaa,
 0xaa,0x2a,0x24,0xd5,0xaa,0x6d,0xab,0x56,0x5d,0x6d,0x55,0x00,0x00,0x00,0x00,
 0x00,0x00,0x00,0x75,0x5b,0x2b,0x91,0x54,0x55,0x55,0x55,0x45,0x49,0xba,0xb6,
 0xda,0xb6,0x6d,0xeb,0x5a,0xab,0x00,0x00,0x00,0x00,0x00,0x00,0x00,0xad,0xea,
 0x56,0x2a,0xa9,0xaa,0xaa,0xaa,0xaa,0x52,0x55,0x6d,0xab,0x6a,0xd5,0x5a,0xd7,
 0xda,0x00,0x00,0x00,0x00,0x00,0x00,0x00,0x55,0x9b,0x5a,0x49,0x55,0x55,0x55,
 0x55,0x15,0x25,0xd2,0x55,0xb5,0x5d,0xbb,0x56,0xb5,0xb6,0x03,0x00,0x00,0x00,
 0x00,0x00,0x00,0xed,0x76,0x2b,0x92,0xa8,0xaa,0xaa,0xaa,0xaa,0x48,0xa9,0xda,
 0x6e,0xab,0x56,0xb5,0xad,0x55,0x05,0x00,0x00,0x00,0x00,0x00,0x00,0x55,0x55,
 0xad,0x2a,0x55,0x55,0x55,0x55,0x55,0x95,0xa4,0xb5,0x55,0xd5,0xd5,0x6d,0x55,
 0x6d,0x05,0x00,0x00,0x00,0x00,0x00,0x00,0xdd,0xaa,0xb5,0x44,0x52,0x55,0x55,
 0xab,0xaa,0x28,0x49,0xab,0x6a,0xbb,0xba,0xaa,0x76,0xdb,0x1e,0x00,0x00,0x00,
 0x00,0x00,0x00,0xb5,0x6e,0x2b,0xa9,0x54,0x55,0xd5,0xd4,0xaa,0x42,0x92,0xb6,
 0xdd,0x56,0xab,0x6d,0xad,0x56,0x15,0x00,0x00,0x00,0x00,0x00,0x00,0x55,0xd5,
 0xb6,0x12,0xa9,0xaa,0x2a,0xab,0xaa,0x9a,0x2a,0x6a,0xab,0x6a,0x6d,0xdb,0xd5,
 0x6a,0x6b,0x00,0x00,0x00,0x00,0x00,0x00,0xed,0xb6,0x2a,0xa4,0xaa,0x5a,0xd5,
 0xaa,0xaa,0xa2,0x44,0xad,0x6a,0xad,0x55,0x55,0xad,0xad,0xb6,0x00,0x00,0x00,
 0x00,0x00,0x00,0x55,0xad,0xad,0x49,0x54,0x55,0xab,0xaa,0xaa,0x16,0xa9,0xd8,
 0xd6,0x5a,0xdb,0xb6,0x5a,0xdb,0xad,0x01,0x00,0x00,0x00,0x00,0x00,0xad,0xb5,
 0x5a,0x92,0x52,0x55,0x55,0x55,0x55,0x55,0x25,0xa5,0xad,0xb5,0xb6,0xaa,0xeb,
 0xaa,0x6a,0x01,0x00,0x00,0x00,0x00,0x00,0x75,0x6b,0xab,0x54,0xaa,0xaa,0x2a,
 0x55,0xb5,0x2a,0x4a,0x52,0xb5,0x6e,0x55,0x5b,0xad,0xb6,0x56,0x07,0x00,0x00,
 0x00,0x00,0x00,0xad,0xd6,0x36,0x89,0x54,0x55,0x55,0x48,0x55,0x55,0x91,0xa4,
 0x6d,0xd5,0xb6,0x76,0x5b,0x6d,0x6d,0x05,0x00,0x00,0x00,0x00,0x00,0xd5,0x5a,
 0xad,0x52,0xa9,0xaa,0xa2,0x92,0x44,0x55,0x2a,0xa9,0xaa,0xad,0x6d,0x55,0xb5,
 0xd5,0xda,0x1a,0x00,0x00,0x00,0x00,0x00,0xad,0xb5,0x55,0x24,0x52,0x55,0x15,
 0x25,0x29,0xa2,0x42,0x45,0x6d,0x6b,0xd5,0xae,0x6d,0x5b,0xab,0x16,0x00,0x00,
 0x00,0x00,0x00,0x75,0xad,0x5a,0x49,0x55,0x55,0x52,0x4a,0x52,0x49,0x54,0x2a,
 0x5a,0x55,0xab,0x75,0xab,0xd6,0xb6,0x6d,0x00,0x00,0x00,0x00,0x00,0xad,0x6a,
 0x57,0xaa,0x54,0xad,0xa4,0x50,0x85,0xaa,0x8a,0x90,0xaa,0xdd,0x5a,0x4d,0xd5,
 0xaa,0x6a,0xb5,0x00,0x00,0x00,0x00,0x00,0xd5,0xd6,0xaa,0x44,0x52,0x95,0x0a,
 0x95,0x28,0x84,0x50,0xa5,0x74,0xab,0xb6,0xb5,0xad,0xdd,0x56,0x6b,0x01,0x00,
 0x00,0x00,0x00,0xad,0x5d,0x5d,0x29,0x55,0x25,0x51,0x25,0x55,0x29,0x95,0x14,
 0x49,0xb5,0x6d,0x6b,0xbb,0xaa,0x6d,0xad,0x02,0x00,0x00,0x00,0x00,0x75,0xd5,
 0x2a,0x92,0xa8,0x4a,0x2a,0x49,0xa2,0x52,0x2a,0xa9,0xd2,0x56,0xab,0x56,0xd5,
 0xb6,0xda,0xda,0x05,0x00,0x00,0x00,0x00,0xad,0xb6,0x55,0x25,0x55,0x91,0x44,
 0x92,0x14,0xa5,0x44,0x22,0xa5,0xed,0xda,0xba,0xad,0xd5,0x56,0x37,0x03,0x00,
 0x00,0x00,0x00,0xd5,0x55,0xbb,0x48,0xa9,0xa4,0xaa,0xa4,0x52,0x88,0x92,0x54,
 0x48,0x55,0x55,0x55,0x6b,0xad,0xb5,0xea,0x06,0x00,0x00,0x00,0x00,0xad,0xda,
 0x16,0x55,0x12,0x95,0x10,0x29,0xa5,0x2a,0xa9,0x8a,0x2a,0xad,0x6d,0xb7,0x5a,
 0x5b,0xad,0x55,0x05,0x00,0x00,0x00,0x00,0xb5,0xb6,0x6a,0x22,0xa5,0x24,0xa5,
 0x4a,0x88,0xa4,0x24,0x51,0x49,0x5a,0xdb,0x6a,0xab,0x6a,0x6b,0x5b,0x05,0x00,
 0x00,0x00,0x00,0x6d,0xad,0x9d,0x94,0x28,0x49,0x4a,0xa4,0x2a,0x49,0x49,0x4a,
 0x92,0xea,0xaa,0xd6,0x76,0xdb,0x5a,0xb5,0x03,0x00,0x00,0x00,0x00,0xd5,0x55,
 0xb3,0x52,0x45,0x52,0xa9,0x12,0x51,0x12,0x92,0x94,0x24,0x59,0x6d,0xad,0xaa,
 0x56,0x6b,0x6b,0x05,0x00,0x00,0x00,0x00,0xad,0x76,0x2d,0x25,0xaa,0x8a,0x12,
 0xd5,0x8a,0xaa,0x2a,0x21,0x49,0x52,0xdb,0xda,0xd6,0xb5,0xd6,0x56,0x05,0x00,
 0x00,0x00,0x00,0xb5,0xad,0x5a,0x48,0x91,0x54,0xa4,0xa8,0xb6,0x24,0x51,0xaa,
 0x52,0xa5,0x56,0xab,0xad,0x6a,0xad,0xda,0x02,0x00,0x00,0x00,0x00,0x6d,0xd5,
 0xb5,0x2a,0x2a,0x21,0x49,0x6e,0x6d,0xab,0x8a,0x4a,0x94,0xc8,0xb5,0x76,0x75,
 0xdb,0xda,0xb6,0x07,0x00,0x00,0x00,0x00,0x55,0x5b,0x2b,0x49,0x49,0x4a,0x95,
 0xd5,0xd5,0x5a,0x55,0x91,0x22,0x15,0xad,0xad,0x56,0xb5,0xb5,0x55,0x01,0x00,
 0x00,0x00,0x00,0x6d,0xb5,0xb6,0x92,0x92,0x94,0xa8,0xba,0x5a,0xb5,0x6d,0x2d,
 0x55,0xa2,0x6a,0xd5,0xda,0xae,0x56,0x6d,0x07,0x00,0x00,0x00,0x00,0xd5,0xd6,
 0x2a,0x2a,0x24,0x29,0xa5,0x55,0xd7,0x6e,0x5b,0x6b,0x95,0x54,0xd6,0x5a,0xab,
 0x55,0x6d,0x5b,0x05,0x00,0x00,0x00,0x00,0xad,0xb5,0xb6,0x44,0x55,0xa2,0xb4,
 0xb6,0xaa,0x55,0xd5,0xda,0x6a,0x25,0xb9,0xb6,0xb6,0xda,0xd5,0xaa,0x05,0x00,
 0x00,0x00,0x00,0x75,0xad,0xad,0x52,0x89,0x4a,0xd5,0x6a,0x5d,0x6d,0x5b,0xab,
 0x5d,0xdb,0xaa,0xad,0x6d,0xab,0xb6,0x76,0x05,0x00,0x00,0x00,0x00,0xad,0x6a,
 0x35,0x89,0xa4,0x14,0xad,0xdd,0x6a,0xdb,0xb6,0xb6,0xaa,0xb6,0x56,0x6b,0xd5,
 0xb6,0xad,0x4d,0x03,0x00,0x00,0x00,0x00,0xd5,0x56,0xab,0x54,0x4a,0x51,0x5b,
 0xab,0xad,0xaa,0x6a,0xad,0x75,0xad,0xb5,0x5a,0x5b,0x6d,0xb5,0xba,0x06,0x00,
 0x00,0x00,0x00,0xad,0xdd,0x36,0x89,0x10,0xaa,0x6a,0x55,0xdb,0x6d,0xad,0xb5,
 0xce,0x55,0x6d,0xab,0xd6,0xaa,0xd6,0x66,0x05,0x00,0x00,0x00,0x00,0x75,0xb5,
 0xaa,0x52,0xd5,0xd4,0xad,0x6d,0xb5,0x5a,0x6b,0x6b,0xb5,0xb6,0xd5,0x76,0xb5,
 0xb6,0xb5,0xdd,0x02,0x00,0x00,0x00,0x00,0x55,0xab,0x2d,0x25,0x25,0xb5,0x5a,
 0xdb,0x56,0xab,0x56,0xad,0xad,0x6d,0x5b,0xcd,0xad,0x6d,0xad,0x52,0x07,0x00,
 0x00,0x00,0x00,0xb4,0x56,0x5b,0x48,0x48,0xaa,0xb6,0xaa,0xb5,0x76,0x6d,0x5b,
 0x6b,0x55,0xb5,0xb5,0x6a,0x55,0x6b,0xaf,0x02,0x00,0x00,0x00,0x00,0x69,0xed,
 0xaa,0x95,0xaa,0xb6,0xd5,0x6d,0x6d,0xcd,0xd5,0x6a,0xad,0xda,0x6e,0xad,0x5d,
 0xdb,0xda,0x74,0x05,0x00,0x00,0x00,0x00,0xad,0x55,0x6d,0xa2,0x42,0x6d,0xad,
 0x5a,0xab,0xb5,0xb6,0xd6,0xda,0xb5,0x55,0x6b,0xd3,0x56,0xab,0xcd,0x05,0x00,
 0x00,0x00,0x00,0x58,0xdb,0x9a,0x14,0xb9,0xab,0xb5,0xd5,0x5a,0xab,0xad,0xad,
 0xb5,0xae,0xaa,0x5a,0xad,0xb5,0xb6,0x3a,0x03,0x00,0x00,0x00,0x00,0xb5,0xb6,
 0x35,0xa9,0x54,0xb5,0x56,0x5b,0xb5,0x76,0xb5,0x5a,0xab,0x55,0x7b,0xd7,0xba,
 0x6a,0xad,0xd5,0x06,0x00,0x00,0x00,0x00,0x69,0x55,0x6b,0x22,0xb5,0xae,0x6d,
 0xb5,0x6b,0xad,0x6a,0x6b,0x6d,0xf5,0xd6,0xaa,0xd5,0xd6,0x6a,0xab,0x05,0x00,
 0x00,0x00,0x00,0xac,0x6d,0x9d,0x4a,0x6d,0x55,0xd5,0x6e,0xd6,0xaa,0xad,0xd6,
 0x5a,0xab,0xaa,0xba,0xae,0xad,0x5d,0x5d,0x05,0x00,0x00,0x00,0x00,0x59,0x5b,
 0x6b,0x54,0xab,0xbb,0xad,0xd5,0xad,0x6d,0xdb,0x5a,0xd7,0x56,0xad,0xd5,0x6a,
 0x75,0xd3,0x6a,0x03,0x00,0x00,0x00,0x00,0xb5,0xaa,0x9a,0xa2,0x5a,0x55,0x5b,
 0x35,0x75,0xdb,0xaa,0xb5,0xaa,0xba,0x5b,0x5b,0x5b,0xab,0xae,0xad,0x06,0x00,
 0x00,0x00,0x00,0xd4,0x76,0x6b,0xda,0xb6,0xb6,0xea,0xee,0x56,0x55,0x6d,0x6b,
 0xdd,0x56,0xb5,0xd6,0xd6,0xd6,0x5a,0xdb,0x01,0x00,0x00,0x00,0x00,0xb5,0xcd,
 0x56,0xb5,0xd5,0xd5,0xad,0xa9,0xda,0xb6,0x5b,0xad,0xb3,0xb5,0xd6,0xb5,0xaa,
 0xba,0x6a,0xb5,0x06,0x00,0x00,0x00,0x00,0xa9,0xba,0x5a,0xaa,0xb6,0x5a,0x5b,
 0x57,0xab,0x6d,0x6a,0x5b,0xad,0x6a,0xad,0x6a,0xbb,0x55,0xdb,0x56,0x05,0x00,
 0x00,0x00,0x00,0xb6,0x55,0xab,0x6d,0xad,0xb5,0x6a,0xb5,0xb6,0xaa,0xd9,0x6a,
 0x6b,0xd7,0xb5,0xae,0x56,0xeb,0x56,0x6d,0x03,0x00,0x00,0x00,0x00,0x6d,0xeb,
 0xb6,0x5a,0x6b,0x6b,0xad,0xea,0x6a,0x5b,0x57,0xd5,0xda,0xac,0x6a,0xb5,0xb5,
 0x56,0xb5,0xd5,0x06,0x00,0x00,0x00,0x00,0x55,0x9d,0x6a,0xab,0x5a,0x5d,0xdb,
 0x5e,0xdb,0x6a,0xb5,0x5a,0x56,0x5b,0xd7,0x6d,0x6d,0xdd,0x56,0x5b,0x05,0x00,
 0x00,0x00,0x00,0xdb,0x6a,0xdb,0x76,0xd7,0xaa,0x56,0x55,0xb5,0xd6,0xaa,0xb5,
 0x35,0xb5,0x5a,0x55,0xab,0xb5,0xda,0xb6,0x05,0x00,0x00,0x00,0x00,0xb6,0xd5,
 0x56,0xd5,0xaa,0x75,0xb5,0x6b,0x57,0xad,0x6d,0x6b,0x6d,0xab,0xb5,0xb6,0x5a,
 0xab,0xb5,0xaa,0x02,0x00,0x00,0x00,0x00,0x55,0xbb,0x6a,0x5b,0x6d,0xab,0x6b,
 0x95,0xda,0x5a,0x5b,0xad,0xaa,0x56,0x4d,0x6d,0x6b,0x6d,0xab,0x6d,0x03,0x00,
 0x00,0x00,0x00,0xad,0x56,0xdb,0xd6,0x5a,0x6d,0xad,0xee,0xb6,0xb5,0x6a,0xdb,
 0x6d,0x6d,0xdb,0xcb,0xd6,0x5a,0x6d,0xdb,0x02,0x00,0x00,0x00,0x00,0x6b,0xd5,
 0x56,0xb5,0xd5,0x5a,0xb5,0x51,0x55,0x6b,0xdb,0xaa,0xda,0xda,0xaa,0xaa,0xb2,
 0xd5,0x5a,0x55,0x05,0x00,0x00,0x00,0x00,0xda,0xb6,0xb5,0xad,0xb6,0xd5,0x56,
 0xdb,0xb6,0xd6,0x56,0x6d,0xab,0xb5,0xb6,0xda,0x56,0xab,0xd5,0xb6,0x03,0x00,
 0x00,0x00,0x00,0xb5,0x6d,0x6d,0xd5,0x6a,0xbb,0x6d,0xb6,0xad,0xad,0x6a,0xdb,
 0xb6,0xae,0x6d,0xb7,0x6d,0xb5,0xaa,0x55,0x05,0x00,0x00,0x00,0x00,0xab,0xaa,
 0xaa,0xb6,0x5d,0x55,0x55,0xad,0x6a,0x75,0xdb,0xaa,0x6a,0x55,0xd5,0x54,0x55,
 0x6d,0xbb,0x68,0x03,0x00,0x00,0x00,0x00,0x6e,0xdb,0xb6,0xad,0xaa,0xb6,0xb6,
 0x6b,0x5b,0xab,0x56,0xdb,0xd6,0xb6,0xad,0xdb,0xb6,0xab,0x6a,0x55,0x00,0x00,
 0x00,0x00,0x00,0xd5,0xb6,0x6d,0xb5,0xb5,0xad,0x6d,0xd5,0xaa,0xd6,0xda,0xb6,
 0xad,0x6d,0x5b,0xb5,0x6d,0xb5,0xad,0xae,0x02,0x00,0x00,0x00,0x00,0xad,0xaa,
 0xaa,0x6d,0x6b,0x6b,0xab,0xb6,0x76,0xad,0xb5,0xaa,0x5a,0x55,0xb5,0x56,0x55,
 0x6d,0x6b,0x75,0x03,0x00,0x00,0x00,0x00,0xdb,0x56,0x5b,0xab,0xae,0x5a,0xb5,
 0xad,0xad,0xbb,0x56,0x6d,0xb5,0x6d,0x6b,0x6d,0xdb,0xaa,0xda,0xaa,0x06,0x00,
 0x00,0x00,0x00,0xaa,0xf5,0xd6,0xda,0x6a,0x6b,0x6b,0x55,0x55,0x65,0xed,0x5a,
 0x6b,0xab,0xd6,0x5a,0xb5,0x6d,0xab,0x6d,0x05,0x00,0x00,0x00,0x00,0x5b,0xad,
 0xaa,0xb6,0xda,0xd6,0x56,0xbb,0x6d,0xdb,0x9a,0xab,0x56,0xb5,0xad,0xd5,0x56,
 0xdb,0x5a,0xdb,0x02,0x00,0x00,0x00,0x00,0xb6,0x55,0xdd,0x55,0x57,0xad,0xda,
 0x66,0xdb,0xb6,0x75,0x76,0x6d,0x6b,0xb5,0xb6,0x6d,0x55,0xb5,0xaa,0x05,0x00,
 0x00,0x00,0x00,0x55,0xdb,0xaa,0xda,0x6a,0xdb,0xb6,0x5a,0x55,0x55,0xab,0xcd,
 0xd5,0x56,0x6b,0xad,0xaa,0xb6,0x6b,0x5b,0x03,0x00,0x00,0x00,0x00,0xdb,0xb6,
 0x5b,0xb7,0xda,0xaa,0xd5,0xd6,0xb6,0xad,0x56,0x3b,0xbb,0xba,0xd6,0x6a,0xdb,
 0x6d,0xd6,0xb6,0x06,0x00,0x00,0x00,0x00,0xb6,0xaa,0xea,0x54,0x57,0xb5,0x5a,
 0xb5,0x55,0x6b,0xed,0xea,0x56,0x6b,0xad,0xdd,0xb6,0xaa,0xad,0x6a,0x05,0x00,
 0x00,0x00,0x00,0x55,0x5b,0xad,0xdb,0x6a,0x6b,0xd7,0xae,0xda,0xda,0x5a,0x95,
 0x6a,0xad,0x5b,0xab,0xaa,0x56,0xdb,0xd6,0x02,0x00,0x00,0x00,0x00,0xed,0xb6,
 0x5b,0xb5,0xaa,0xae,0xaa,0xd5,0xb6,0x56,0xab,0x6d,0xdb,0x6a,0xb5,0x6a,0x6d,
 0xed,0xaa,0xad,0x05,0x00,0x00,0x00,0x00,0xab,0x6a,0xb5,0x56,0xd7,0xda,0xba,
 0xba,0xd5,0xda,0xb6,0xda,0x56,0x5b,0x6d,0x5b,0xdb,0x5a,0x75,0xb5,0x06,0x00,
 0x00,0x00,0x00,0x5a,0xad,0xd6,0xda,0x58,0xab,0xd5,0xa6,0xb6,0xb6,0x6a,0x57,
 0xb5,0xd6,0xaa,0xd6,0x56,0xab,0xad,0xd6,0x02,0x00,0x00,0x00,0x00,0xeb,0xda,
 0xaa,0xb5,0xb7,0x5a,0xb7,0xdd,0xaa,0x55,0xdb,0x6a,0x6b,0xb5,0x6d,0xb5,0xb5,
 0xb6,0xda,0x5a,0x03,0x00,0x00,0x00,0x00,0xad,0xb5,0x5d,0x2b,0xd5,0xb6,0xaa,
 0xaa,0x6d,0x0d,0x00,0xa0,0xd6,0xae,0xda,0x56,0xad,0x6d,0x57,0x6b,0x05,0x00,
 0x00,0x00,0x00,0xb5,0xae,0x6a,0xad,0xaa,0xd5,0xb6,0xb5,0x5a,0x03,0x00,0x00,
 0xb0,0xd5,0x56,0x6d,0x6b,0xd5,0x6a,0xad,0x03,0x00,0x00,0x00,0x00,0xad,0x55,
 0xdb,0x72,0xbb,0xb6,0x6d,0x6b,0x6b,0x01,0x00,0x00,0x00,0xa8,0xb5,0xdb,0x5a,
 0x5b,0xad,0xb5,0x06,0x00,0x00,0x00,0x00,0x6b,0xb5,0x56,0xd7,0xd6,0xaa,0xaa,
 0xd6,0xd6,0x00,0x00,0x00,0x00,0x00,0x6c,0xaa,0xd6,0xd6,0x5a,0x6b,0x05,0x00,
 0x00,0x00,0x00,0x5a,0xeb,0x6a,0xad,0xaa,0x6d,0xdb,0xba,0x1a,0x00,0x00,0x00,
 0x00,0x00,0x00,0xb6,0xb5,0xaa,0xb5,0xd6,0x02,0x00,0x00,0x00,0x00,0xd5,0x56,
 0xdb,0x6a,0x6d,0xdb,0xaa,0x56,0x0b,0x00,0x00,0x00,0x00,0x00,0x00,0x00,0xaa,
 0x5d,0x6b,0xad,0x05,0x00,0x00,0x00,0x00,0xb7,0xda,0x56,0x5b,0x5b,0x55,0x6d,
 0xd5,0x02,0x00,0x00,0x00,0x00,0x00,0x00,0x00,0x80,0x6a,0xad,0x5b,0x03,0x00,
 0x00,0x00,0x00,0x6a,0xab,0x6a,0xd5,0xd6,0xb6,0xdb,0xb6,0x02,0x00,0x00,0x00,
 0x00,0x00,0x00,0x00,0x00,0x40,0x5b,0xb5,0x06,0x00,0x00,0x00,0x00,0x5d,0x6d,
 0xdb,0xb6,0xb5,0x55,0x55,0xad,0x00,0x00,0x00,0x00,0x00,0x00,0x00,0x00,0x00,
 0x00,0x80,0xd6,0x02,0x00,0x00,0x00,0x00,0xab,0xd5,0x56,0xad,0xaa,0xda,0xda,
 0x6a,0x00,0x00,0x00,0x00,0x00,0x00,0x00,0x00,0x00,0x00,0x00,0x00,0x00,0x00,
 0x00,0x00,0x00,0xb5,0xae,0xda,0x6a,0xdb,0xb6,0xb5,0x1d,0x00,0x00,0x00,0x00,
 0x00,0x00,0x00,0x00,0x00,0x00,0x00,0x00,0x00,0x00,0x00,0x00,0x00,0x6d,0x75,
 0xab,0xdd,0xb6,0x55,0xab,0x0a,0x00,0x00,0x00,0x00,0x00,0x00,0x00,0x00,0x00,
 0x00,0x00,0x00,0x00,0x00,0x00,0x00,0x00,0xd5,0xaa,0xb6,0xaa,0xaa,0xda,0xb6,
 0x03,0x00,0x00,0x00,0x00,0x00,0x00,0x00,0x00,0x00,0x00,0x00,0x00,0x00,0x00,
 0x00,0x00,0x00,0xad,0xd5,0x6a,0x5b,0xdb,0xb6,0x6a,0x01,0x00,0x00,0x00,0x00,
 0x00,0x00,0x00,0x00,0x00,0x00,0x00,0x00,0x00,0x00,0x00,0x00,0x00,0xb3,0xb4,
 0xad,0xd6,0xb6,0x55,0x5b,0x00,0x00,0x00,0x00,0x00,0x00,0x00,0x00,0x00,0x00,
 0x00,0x00,0x00,0x00,0x00,0x00,0x00,0x00,0x6a,0x56,0xdb,0xb5,0x55,0xed,0x16,
 0x00,0x00,0x00,0x00,0x00,0x00,0x00,0x00,0x00,0x00,0x00,0x00,0x00,0x00,0x00,
 0x00,0x00,0x00,0xa9,0x6d,0x35,0xad,0x6a,0x9b,0x0a,0x00,0x00,0x00,0x00,0x00,
 0x00,0x00,0x00,0x00,0x00,0x00,0x00,0x00,0x00,0x00,0x00,0x00,0x00,0x83,0xaa,
 0xd6,0x6a,0xdb,0x6a,0x03,0x00,0x00,0x00,0x00,0x00,0x00,0x00,0x00,0x00,0x00,
 0x00,0x00,0x00,0x00,0x00 };
