/* XPM */
static char *bug_xpm[] = {
/* columns rows colors chars-per-pixel */
"16 16 130 2",
"R  c Black",
"w  c #D0D5AB",
"I  c #94B7DD",
" . c #9EC8FE",
"E  c #303A34",
"Q  c #B2D5FB",
"D  c #121001",
"O. c #6AA3FD",
"J  c #ADC2DF",
"4  c #797649",
"x  c #ADA480",
"-  c #9F3500",
"a  c #2D89FB",
"M  c #B7C7DE",
"'  c #939D60",
"p. c #579AEB",
",  c #C97513",
"l  c #2D80EC",
"(  c #86AFE7",
"0. c #8BB9FD",
",. c #7CADFD",
"9. c #9FC6FD",
"$. c #A2D0FE",
"4. c #95BEFD",
"*. c #382400",
"s  c #BDCCCF",
"%  c #852E00",
"o  c #26110A",
"q  c #66705D",
"Z  c #A4B5C5",
"3. c #84B5FD",
"v  c #D9E03A",
"2. c #7AADFD",
")  c #93BEF9",
"_  c #9DC6FE",
"*  c #D36B00",
"G  c #B3BECB",
"d  c #C2AF74",
"P  c #8EB1E8",
"8. c #5BA8FB",
"X  c #552304",
"@  c #240E08",
"8  c #71441A",
">. c #87B6FA",
".. c #91B8E8",
".  c #4E2205",
"6. c #4C2501",
"k  c #50B0FD",
"3  c #7D3A0B",
"g  c #C58F1C",
"1  c #96480F",
"w. c #65A1FC",
"-. c #9AD0FD",
"=. c #5B5726",
"&. c #302400",
"i. c #63A1F1",
"W  c #C6DBF3",
"j  c #D2C8B0",
"#  c #9F3700",
"u. c #5295E4",
"1. c #5298EE",
"p  c #BC3900",
"5. c #84C0FD",
"~  c #A1BFE6",
"|  c #ABCDFE",
"m  c #B7A881",
"<. c #5098E5",
"@. c #8BBBFE",
"B  c #418CE4",
"U  c #9FC8FB",
"   c None",
":. c #95C0FE",
"L  c #4B91E6",
"7  c #809C74",
"A  c #727D84",
";  c #A03800",
"#. c #98C4FE",
";. c #A2C9FE",
"%. c #6E7754",
"e  c #BE9F15",
"f  c #B9A73D",
"u  c #414A32",
"t  c #D0D383",
"^  c #71AEF7",
"n  c #B9B984",
"h  c #C5AC64",
"<  c #E88A1E",
"t. c #609FED",
"z  c #A0BDE7",
"{  c #998019",
"e. c #4F96E6",
"=  c #862B00",
"y  c #94A097",
"C  c #A3B5BC",
"i  c #7B3907",
"+  c #793F07",
"[  c #CC8000",
"9  c #B23600",
"b  c #F5DC1A",
":  c #A13000",
"O  c #683608",
"q. c #83B2FD",
"`  c #A6CBFD",
"]  c #BE8100",
"!  c #A6C2E1",
"2  c #952B00",
"N  c #50A0FD",
"H  c #B0BEC4",
"/  c #6DA5FD",
"y. c #3082D8",
"$  c #9D3300",
"o. c #4E9AE4",
"5  c #C2A436",
"+. c #7FB2FA",
"r  c #D58F04",
"r. c #64A1F2",
"c  c #BBBB8F",
"}  c #B1D4FC",
"7. c #502000",
"V  c #93B3DE",
"X. c #89B4FD",
">  c #923B0A",
"0  c #484123",
"6  c #F3A41E",
"F  c #505E61",
"T  c #646E6B",
"&  c #C25D00",
"K  c #6FADF3",
"S  c #1C210B",
"Y  c #AFCBF3",
/* pixels */
"                                ",
"                                ",
"              . X               ",
"            o O + @             ",
"      # $   % & * =   - ;       ",
"          : > , < 1 2           ",
"          3 4 5 6 7 8           ",
"    9   0 q w e r t y u i p     ",
"        a s d f g h j k         ",
"      l z x c v b n m M N       ",
"    B V C Z A S D F G H J K     ",
"  L P I U Y T R R E W Q ! ~ ^   ",
"  / ( ) _ ` ' ] [ { } |  ...X.o.",
"  O.+.@.#.$.%.&.*.=.-.;.:.>.,.<.",
"  1.2.3.4.5.  6.7.  8.9.0.q.w.  ",
"    e.r.t.y.          u.i.p.    "
};
