/* XPM */
static char *fileclose_xpm[] = {
/* columns rows colors chars-per-pixel */
"16 16 150 2",
",. c #252540",
"X. c #252541",
"O. c #434363",
"-  c #7F7F97",
"H  c #434364",
"7. c #7F7F99",
"$. c #70708C",
"d  c #ACACC0",
"/  c #1E1E39",
"K  c #2D2D4A",
"$  c #78788D",
"#. c #F0F0F6",
"x. c #4B4B68",
"4. c #9696AB",
"u  c #C3C3D2",
"6  c #D2D2E0",
"C  c #8787A3",
"P  c #262643",
"^  c #353553",
"<  c #F8F8FC",
"k  c #353554",
"&  c #444461",
"Q  c #353557",
"`  c #535373",
"r. c #80809B",
"X  c #1F1F3C",
"N  c #2E2E4B",
"E  c #F1F1F6",
"3  c #2E2E4D",
"8. c #D3D3DE",
"1. c #3D3D5C",
"|  c #3D3D5D",
"W  c #88889F",
"J  c #3D3D5E",
"q  c #D3D3E0",
"'  c #4C4C6C",
"y. c #5B5B7A",
"t. c #5B5B7B",
"(  c #272743",
"[  c #DBDBE3",
"5. c #454566",
":. c #72728D",
"i. c #81819B",
"R  c #9090A8",
"U  c #72728F",
"B. c #202039",
"l. c #20203A",
".  c #20203D",
"%  c #6B6B82",
":  c #F2F2F8",
"k. c #4D4D6B",
")  c #3E3E5E",
"~  c #3E3E5F",
"2. c #B6B6C8",
"u. c #5C5C7B",
"Y  c #6B6B89",
"V. c #191933",
"z. c #373753",
"n  c #DCDCE4",
"%. c #373757",
"h. c #73738F",
"   c None",
"O  c #21213F",
"x  c #F3F3F7",
"f  c #E4E4EB",
"+  c #3F3F5D",
"@. c #D5D5E0",
" . c #3F3F5F",
"j  c #7B7B95",
";  c #C6C6D6",
"v. c #5D5D7C",
"h  c #C6C6D7",
"p. c #6C6C8B",
"=. c #1A1A33",
"m. c #1A1A34",
"V  c #474765",
"p  c #CECEDA",
"0  c #CECEDB",
"_  c #565676",
"T  c #656584",
"]  c #656585",
"Z  c #83839F",
"N. c #22223C",
"7  c #D6D6E1",
";. c #8B8BA1",
"a. c #4F4F6E",
"9. c #5E5E7C",
"5  c #8B8BA3",
"v  c #B8B8CB",
"b  c #9A9AB2",
"y  c #B8B8CC",
"l  c #8B8BA6",
"q. c #2A2A47",
"0. c #393959",
"-. c #DEDEE8",
"I  c #484866",
"9  c #CFCFDB",
"8  c #CFCFDC",
"a  c #B1B1C4",
"M  c #757591",
"m  c #A2A2B8",
"s. c #23233D",
"<. c #23233E",
"r  c #232340",
"D  c #F5F5F7",
"S  c #F5F5F8",
"f. c #50506E",
"w  c #D7D7E3",
"G  c #8C8CA3",
"c. c #5F5F7D",
"M. c #1C1C37",
"3. c #FDFDFD",
">  c #FDFDFE",
"d. c #2B2B49",
"4  c #2B2B4A",
"b. c #494966",
">. c #EEEEF5",
"!  c #3A3A5A",
"2  c #85859C",
"1  c #D0D0DE",
"+. c #585877",
"t  c #676784",
"B  c #242441",
"i  c #F6F6F7",
"n. c #33334F",
"c  c #F6F6F9",
"o. c #333351",
"g  c #E7E7ED",
".. c #333352",
"}  c #333354",
"&. c #424262",
"w. c #515170",
"6. c #424263",
"{  c #6F6F8B",
"e  c #9C9CB2",
"L  c #1D1D37",
"*  c #1D1D39",
"o  c #1D1D3A",
",  c #FEFEFE",
"*. c #2C2C49",
"=  c #2C2C4B",
"F  c #E0E0E8",
"#  c #77778D",
"@  c #686880",
"s  c #B3B3C6",
"g. c #777793",
"A  c #A4A4BB",
"j. c #777795",
"e. c #686888",
"z  c #A4A4BC",
/* pixels */
"            . . X o             ",
"        O + @ # $ % & *         ",
"      = - ; : > , < 1 2 3       ",
"    4 5 6 7 8 9 9 0 q w e 4     ",
"  r t y u i p a s d f g h j *   ",
"  k l z x , c v b n , , m M N   ",
"B V C Z A S , D F , , G H J K L ",
"P I U Y T R E , , > W Q ! ~ ^ / ",
"( ) _ ` ' ] [ , , E { } |  ...L ",
"X.o.O.J +.@., > E , #.$.%.&.*.=.",
"  *. .' -., , ;.:.>., S t | ,.  ",
"  <.1.` 2.3.4.5.6.7.S 8.9.0.=.  ",
"    q.w.e.r.t.y.u._ i.p.a.s.    ",
"      d.f.Y g.U h.j.Y k.X.      ",
"        l.z.x.c.v.b.n.m.        ",
"            M.N.B.V.            "
};
