/* XPM */
static char *ok_xpm[] = {
/* columns rows colors chars-per-pixel */
"16 16 56 1",
"x c #00BE00",
"N c #004600",
"z c #006C00",
"+ c #028902",
"h c #00DB00",
"; c #1FBD1F",
"o c #008C00",
"b c #00B200",
"e c #00FE00",
"& c #18B918",
"a c #00D500",
"m c #006000",
"1 c #008600",
"n c #00AC00",
"f c #005D00",
"6 c #008300",
"l c #00CF00",
"X c #099B00",
"4 c #0BBE0B",
"= c #049104",
"w c #00E900",
"> c #06B106",
"5 c #007400",
"c c #006E00",
"- c #1BCE1B",
"k c #00E000",
"8 c #00DD00",
"j c #00DA00",
"  c None",
"q c #00B100",
"@ c #058F05",
"t c #006200",
"* c #089908",
"r c #00AE00",
"y c #005F00",
"i c #00F100",
"9 c #007C00",
"s c #00EE00",
"v c #005000",
"g c #009C00",
"0 c #007300",
"d c #009300",
", c #08ED08",
"$ c #19A719",
"O c #008D00",
"2 c #01C001",
"< c #008700",
"p c #00D300",
"% c #008400",
". c #069800",
"# c #10A010",
"7 c #00F300",
"u c #00CA00",
"M c #007800",
": c #038203",
"3 c #0AF50A",
/* pixels */
"                ",
"                ",
"              .X",
"o            OO ",
"+@         #$%  ",
" &*      =-;:   ",
" >,<   12345    ",
" 67890qwert     ",
" yuipaswdf      ",
"  ghjkl6        ",
"  zulxc         ",
"  vbnm          ",
"   My           ",
"   N            ",
"                ",
"                "
};
