/* XPM */
static char *cancel_xpm[] = {
/* columns rows colors chars-per-pixel */
"16 16 98 2",
".  c #D23337",
"g  c #EAA4A6",
"X. c #CB3538",
"h  c #F9E8E8",
"9  c #FCF2F2",
"u  c #FFFFFF",
"E  c #FC4A4E",
"1  c #F4D5D6",
"t  c #EEB8BA",
"+  c #DC5B5E",
"o  c #E43438",
"_  c #BE373A",
"6  c #E54A4E",
"N  c #F65054",
"$  c #CA3336",
"Z  c #E54448",
"n  c #E69294",
"p  c #F2C9CA",
"V  c #FF3C40",
"i  c #F2C9CB",
"B  c #FF3C42",
"a  c #E4989A",
"m  c #F8E3E4",
"D  c #EA7A7E",
"'  c #E06C6F",
"#  c #D43236",
"|  c #DB6568",
"]  c #E68082",
"<  c #EC6568",
"3  c #F6DDDE",
"{  c #CB3437",
"8  c #F6DADA",
"P  c #E33539",
"+. c #DC6F72",
"A  c #E86E72",
" . c #E78D90",
"   c None",
"O  c #E05154",
"v  c #E58D8F",
",  c #CE3235",
"7  c #F1C4C6",
"w  c #E35B5E",
"C  c #EB373B",
"K  c #EB373C",
"%  c #D33337",
"0  c #F4CECE",
";  c #FAEBEC",
"}  c #CC3538",
"O. c #D55F61",
"l  c #F8494D",
"e  c #C53438",
".. c #E88E90",
"!  c #FED0D1",
"G  c #F87B7E",
"f  c #E9A1A3",
"Y  c #FF3E43",
"M  c #F29395",
"-  c #FBF2F2",
"z  c #FF3B40",
"2  c #F8E2E2",
"Q  c #FF6D71",
"I  c #FB474C",
"[  c #EC9FA1",
"&  c #E64A4D",
"H  c #FFCECF",
"q  c #F3CCCC",
"L  c #B63C3F",
"x  c #E33438",
"X  c #D73236",
"^  c #E44A4E",
":  c #F0B9BB",
"r  c #EC9093",
"~  c #FC484C",
"R  c #FC484D",
"c  c #E24A4E",
"W  c #FC777A",
"y  c #FAEDED",
"U  c #FC7477",
"s  c #D33236",
"`  c #CC3437",
"S  c #E97478",
"F  c #F26669",
"@  c #E43538",
"o. c #CF3E42",
"*  c #F5A8AA",
"k  c #ECB0B1",
"T  c #FF4045",
"4  c #E57A7C",
"J  c #FF3D42",
"b  c #E69092",
"j  c #EFBABC",
"=  c #F8E4E5",
"5  c #CF3236",
"(  c #FAD8D9",
"d  c #E0383C",
")  c #F28C8F",
"/  c #EE666A",
">  c #E4585C",
/* pixels */
"                                ",
"        . X o O + @ # $         ",
"      % & * = - - ; : > ,       ",
"    . < 1 2 2 2 2 2 2 3 4 ,     ",
"  5 6 7 8 9 0 0 0 0 8 9 q w e   ",
"  # r t y u y t t i u u p a s   ",
"  d f g g h u h j u u k l z x   ",
"  c v b n n m u u u M N B V C   ",
"  Z A S D F G u u H J J J B K L ",
"  P I I I U u u H u H J Y T @   ",
"  # R E W u u Q J H u ! ~ R s   ",
"  $ ^ / ( u ) / / / ( u ) ^ _   ",
"    ` ' ] [ ] ] ] ] ] [ ' {     ",
"      } |  ......... .| X.      ",
"        e o.O.+.+.O.o._         ",
"                L               "
};
