/* XPM */
static char *contexthelp_xpm[] = {
/* columns rows colors chars-per-pixel */
"18 18 104 2",
"E  c #306DEA",
"=  c #3574F5",
"[  c #3A75EE",
"I  c #4E88FE",
"^  c #6799FF",
",  c #FFFFFF",
"*. c #535353",
"w  c #626262",
"D  c #4784FF",
"O  c #3D76EB",
"R  c #9E9E9E",
"l  c #568DFE",
"r  c #6A97F2",
"x  c #E4EBF8",
"5  c #E9EFFB",
"O. c #4C4C4C",
"*  c #797979",
"K  c #4F89FF",
"{  c #B5B5B5",
"$  c #DDE7FB",
"9  c #E7EFFF",
"p  c #F1F4F9",
"1  c #7797D7",
"F  c #115FFF",
":  c #FBFCFD",
"i  c #8BADF3",
"b  c #4381FF",
"/  c #578EFF",
"u  c #84ACFE",
"f  c #F9F9F9",
"o. c #898989",
"B  c #4B86FF",
"+. c #989898",
"H  c #4B7AD9",
"o  c #5F8AE1",
"L  c #78A1F6",
"C  c #8CAEF4",
"@  c #9BB7F1",
".. c #2B6BEF",
"W  c #588CF6",
"6  c #D7E4FF",
"]  c #719DF5",
"8  c #E6EDFA",
"M  c #1F69FF",
"e  c #296EFB",
"'  c #B7CFFF",
"z  c #6A99F8",
"   c None",
"`  c #92B6FE",
"X. c #185FF0",
"-  c #97B7F7",
"y  c #A6C3FE",
"j  c #598DF5",
"d  c #1662FC",
"0  c #7CA3F4",
"}  c #5E5E5E",
"a  c #A9C4FB",
"Y  c #4380FD",
"U  c #4D88FF",
"%. c #8B8B8B",
"T  c #0052FA",
"|  c #0F5BF5",
"&  c #7F9EDD",
"(  c #286CF6",
"4  c #A7C4FF",
"g  c #757575",
"s  c #4B85FB",
"Q  c #558DFF",
"v  c #558AF5",
"c  c #CADAFA",
"Z  c #E3EBFD",
"q  c #0D5BF9",
"#. c #FCFCFC",
"n  c #1763FF",
"h  c #2B70FB",
"J  c #3074FE",
"&. c #5F5F5F",
"P  c #A0BDF8",
"V  c #4985FF",
"#  c #CDDBF9",
"3  c #6791E7",
">  c #F5F8FF",
" . c #296AEF",
")  c #336FE9",
"N  c #3D7DFF",
"$. c #A3A3A3",
"t  c #83ACFF",
"@. c #6F6F6F",
"S  c #4582FF",
"+  c #457CED",
"%  c #C9D8F7",
"_  c #5E8DEC",
"A  c #6394F9",
"<  c #DDE8FF",
"2  c #2069FE",
"7  c #9ABAFC",
"G  c #868686",
"X  c #5786E5",
"!  c #93B3F5",
".  c #2D6FF7",
"m  c #7F7F7F",
"k  c #5F94FF",
"~  c #CAD9F8",
";  c #DEE9FE",
/* pixels */
"                    . X o O         ",
"                  + @ # $ % &       ",
"*               = - ; : > , < 1     ",
"* *           2 3 4 5 6 7 8 9 0 q   ",
"* , w         e r t y u i p a s d   ",
"* , f g       h j k l z x c v b n   ",
"* , , , m     M N B V C Z A S D F   ",
"* , , , , G   H J K B L P I U Y T   ",
"* , , , , , R   E W Q ! ~ ^ / (     ",
"* , , , , , , R   ) _ ` ' ] [       ",
"* , , , , { } }     |  ...X.        ",
"* , , o., o.                        ",
"* , O.O., , O.                      ",
"* O.    +., m                       ",
"        @., #.O.                    ",
"          $., %.                    ",
"          &., , O.                  ",
"            *.*.                    "
};
