/* XPM */
static char *exec_xpm[] = {
/* columns rows colors chars-per-pixel */
"16 16 108 2",
"[  c #299BEA",
"V  c #3C9BF4",
"y  c #3284C1",
"0  c #16C4FA",
"O  c #0CBCFE",
"=  c #02DAFE",
"$  c #20C3F6",
",  c #26AEF0",
":  c #1E9DE8",
"P  c #4BC4FF",
"t  c #3084D7",
"O. c #0CADF4",
"m  c #54DCF9",
"(  c #00AEFF",
"@. c #0AB0EF",
":. c #1376CF",
"l  c #0CAAF5",
"n  c #2786D9",
"F  c #1570D7",
"r  c #04C2FC",
"N  c #0BBAFE",
"A  c #11A5F8",
"w  c #52ADF4",
"H  c #00A2FF",
"G  c #2893F0",
"!  c #009FFF",
"+. c #0490F9",
" . c #00C5FF",
"Q  c #05A0FF",
"L  c #46A2EB",
"d  c #00C2FF",
"|  c #0EB8F5",
"-  c #10AFF0",
">  c #1AB7F3",
"_  c #0096FF",
"#. c #00DFFE",
"<  c #3399EA",
"Y  c #089EFE",
")  c #00B6FF",
".  c #46BFF8",
"h  c #46B9E7",
"R  c #3EB1FB",
"5  c #1B8FE4",
"D  c #0CB2FF",
"   c None",
"u  c #3B9BDC",
"`  c #00B0FF",
"p  c #45A6E9",
"X. c #0B70E4",
"j  c #49C0EE",
"v  c #00ADFF",
"4  c #00D3FF",
"&  c #0AD8FE",
"a  c #22B0F4",
"k  c #49BDF6",
"s  c #41AFF7",
"B  c #0999F5",
"%  c #49BAF9",
"/  c #00A4FF",
";. c #1A67C8",
"2  c #3497FA",
"Z  c #0382FE",
"c  c #009EFF",
"#  c #1DC9F9",
"'  c #059CF0",
"*  c #22CAFB",
"=. c #0A9AE7",
"*. c #127CDA",
"~  c #0C62CD",
".. c #0095FF",
"^  c #0EB4FA",
"i  c #3DA0E2",
"M  c #5AD4FB",
"b  c #00B8FF",
"&. c #00DEFE",
"8  c #3282D6",
"f  c #05B9FC",
"E  c #43B7FE",
"X  c #48B8F5",
"e  c #0EAEFD",
"g  c #2561AE",
"K  c #17A3F9",
"q  c #1AAAF0",
"+  c #0CDAFD",
"x  c #3899F6",
"U  c #2599F2",
"I  c #0A8BEF",
"o. c #0C4AAE",
"C  c #0E82FC",
"6  c #307FD6",
"1  c #338CE2",
"S  c #60DCFF",
"o  c #5EB9F7",
"]  c #0C41A0",
";  c #1C98E5",
"%. c #0DB5F1",
"T  c #2BA7FA",
"z  c #1B85E5",
"$. c #0775E2",
"J  c #00A6FF",
"W  c #33B2FF",
"3  c #00A3FF",
"9  c #3994E4",
"-. c #0795E4",
"}  c #2190E2",
"7  c #3180D4",
"{  c #0EBCF7",
"@  c #2BC1F6",
/* pixels */
"        . X                     ",
"    o   O + @ # $               ",
"  % & * = - ; : > , < 1         ",
"  2 3 4 5 6 7 7 8 9 0 q         ",
"  w e r t     y u i p a         ",
"s d d f g         h j k l z     ",
"x c v b n           m M N B     ",
"V C Z v A             S D F     ",
"    G H J K L         P J I     ",
"    U c c c Y T R E W Q ! H ~   ",
"    ^ / ( ) c _ _ _ _ _ ` ' ]   ",
"    [ { } |  .....b ` ..X.o.    ",
"            O._ +.@.#.` $.      ",
"            %.&.*.  =.-.        ",
"            ;.:.                ",
"                                "
};
