#define dummy_width 64
#define dummy_height 64
#define dummy_x_hot 31
#define dummy_y_hot 10
static char dummy_bits[] = {
 0x00,0x00,0x00,0x00,0x00,0x00,0x00,0x00,0x00,0x00,0x00,0x00,0x00,0x00,0x00,
 0x00,0x00,0x00,0x00,0x00,0x00,0x00,0x00,0x00,0x00,0x00,0x00,0x00,0x00,0x00,
 0x00,0x00,0x00,0x00,0x00,0x00,0x00,0x00,0x00,0x00,0x00,0x00,0x00,0x00,0x00,
 0x00,0x00,0x00,0x00,0x00,0x00,0x00,0x00,0x00,0x00,0x00,0x00,0x00,0x00,0x00,
 0x00,0x00,0x00,0x00,0x00,0x00,0x00,0x00,0x00,0x00,0x00,0x00,0x00,0x00,0x00,
 0x80,0x00,0x00,0x00,0x00,0x00,0x00,0x00,0x80,0x00,0x00,0x00,0x00,0x00,0x00,
 0x00,0xc0,0x01,0x00,0x00,0x00,0x00,0x00,0x00,0xe0,0x03,0x00,0x00,0x00,0x00,
 0x00,0x00,0xe0,0x03,0x00,0x00,0x00,0x00,0x00,0x00,0x70,0x07,0x00,0x00,0x00,
 0x00,0x00,0x00,0x38,0x0e,0x00,0x00,0x00,0x00,0x00,0x00,0x9c,0x0c,0x00,0x00,
 0x00,0x00,0x00,0x00,0xcc,0x19,0x00,0x00,0x00,0x00,0x00,0x00,0xe6,0x33,0x00,
 0x00,0x00,0x00,0x00,0x00,0x76,0x37,0x00,0x00,0x00,0x00,0x00,0x00,0x3f,0x7e,
 0x00,0x00,0x00,0x00,0x00,0x80,0x9f,0x7c,0x00,0x00,0x00,0x00,0x00,0x80,0xcf,
 0xf9,0x00,0x00,0x00,0x00,0x00,0xc0,0xe7,0xf3,0x01,0x00,0x00,0x00,0x00,0xe0,
 0x77,0xf7,0x03,0x00,0x00,0x00,0x00,0xe0,0x3f,0xfe,0x03,0x00,0x00,0x00,0x00,
 0xf0,0x9f,0xfc,0x07,0x00,0x00,0x00,0x00,0xf8,0xcf,0xf9,0x0f,0x00,0x00,0x00,
 0x00,0xfc,0xe7,0xf3,0x0f,0x00,0x00,0x00,0x00,0xfc,0xf7,0xf7,0x1f,0x00,0x00,
 0x00,0x00,0xfe,0xff,0xff,0x3f,0x00,0x00,0x00,0x00,0xff,0xff,0xff,0x3f,0x00,
 0x00,0x00,0x00,0xff,0xff,0xff,0x7f,0x00,0x00,0x00,0x80,0xff,0xff,0xff,0xff,
 0x00,0x00,0x00,0x80,0xff,0xff,0xff,0xff,0x00,0x00,0x00,0xc0,0xff,0xff,0xff,
 0xff,0x01,0x00,0x00,0xe0,0xff,0xff,0xff,0xff,0x03,0x00,0x00,0xf0,0xff,0xff,
 0xff,0xff,0x03,0x00,0x00,0xf0,0xff,0xff,0xff,0xff,0x07,0x00,0x00,0x00,0xe0,
 0xff,0xff,0x03,0x00,0x00,0x00,0x00,0xe0,0xff,0xff,0x03,0x00,0x00,0x00,0x00,
 0xe0,0xff,0xff,0x03,0x00,0x00,0x00,0x00,0xe0,0xff,0xff,0x03,0x00,0x00,0x00,
 0x00,0xe0,0xff,0xff,0x03,0x00,0x00,0x00,0x00,0xe0,0xff,0xff,0x03,0x00,0x00,
 0x00,0x00,0xe0,0xff,0xff,0x03,0x00,0x00,0x00,0x00,0xe0,0xff,0xff,0x03,0x00,
 0x00,0x00,0x00,0xe0,0xff,0xff,0x03,0x00,0x00,0x00,0x00,0xe0,0xff,0xff,0x03,
 0x00,0x00,0x00,0x00,0xe0,0xff,0xff,0x03,0x00,0x00,0x00,0x00,0xe0,0xff,0xff,
 0x03,0x00,0x00,0x00,0x00,0xe0,0xff,0xff,0x03,0x00,0x00,0x00,0x00,0xe0,0xff,
 0xff,0x03,0x00,0x00,0x00,0x00,0xe0,0xff,0xff,0x03,0x00,0x00,0x00,0x00,0xe0,
 0xff,0xff,0x03,0x00,0x00,0x00,0x00,0xe0,0xff,0xff,0x03,0x00,0x00,0x00,0x00,
 0x00,0x00,0x00,0x00,0x00,0x00,0x00,0x00,0x00,0x00,0x00,0x00,0x00,0x00,0x00,
 0x00,0x00,0x00,0x00,0x00,0x00,0x00,0x00,0x00,0x00,0x00,0x00,0x00,0x00,0x00,
 0x00,0x00,0x00,0x00,0x00,0x00,0x00,0x00,0x00,0x00,0x00,0x00,0x00,0x00,0x00,
 0x00,0x00,0x00,0x00,0x00,0x00,0x00,0x00,0x00,0x00,0x00,0x00,0x00,0x00,0x00,
 0x00,0x00 };
