#define up_down_width 64
#define up_down_height 64
#define up_down_x_hot 31
#define up_down_y_hot 31
static char up_down_bits[] = {
 0x00,0x00,0x00,0x00,0x00,0x00,0x00,0x00,0x00,0x00,0x00,0x80,0x01,0x00,0x00,
 0x00,0x00,0x00,0x00,0xc0,0x03,0x00,0x00,0x00,0x00,0x00,0x00,0xe0,0x07,0x00,
 0x00,0x00,0x00,0x00,0x00,0xf8,0x0f,0x00,0x00,0x00,0x00,0x00,0x00,0xfc,0x3f,
 0x00,0x00,0x00,0x00,0x00,0x00,0xfe,0x7f,0x00,0x00,0x00,0x00,0x00,0x80,0xff,
 0xff,0x01,0x00,0x00,0x00,0x00,0x80,0xff,0xff,0x01,0x00,0x00,0x00,0x00,0xc0,
 0xff,0xff,0x03,0x00,0x00,0x00,0x00,0xc0,0xff,0xff,0x03,0x00,0x00,0x00,0x00,
 0xc0,0xff,0xff,0x03,0x00,0x00,0x00,0x00,0xc0,0xff,0xff,0x03,0x00,0x00,0x00,
 0x00,0xc0,0xe3,0xc7,0x03,0x00,0x00,0x00,0x00,0xc0,0xe1,0x87,0x03,0x00,0x00,
 0x00,0x00,0xc0,0xe0,0x07,0x03,0x00,0x00,0x00,0x00,0x40,0xe0,0x07,0x02,0x00,
 0x00,0x00,0x00,0x00,0xe0,0x07,0x00,0x00,0x00,0x00,0x00,0x00,0xe0,0x07,0x00,
 0x00,0x00,0x00,0x00,0x00,0xe0,0x07,0x00,0x00,0x00,0x00,0x00,0x00,0xe0,0x07,
 0x00,0x00,0x00,0x00,0x00,0x00,0xe0,0x07,0x00,0x00,0x00,0x00,0x00,0x00,0xe0,
 0x07,0x00,0x00,0x00,0x00,0x00,0x00,0xe0,0x07,0x00,0x00,0x00,0x00,0x00,0x00,
 0xe0,0x07,0x00,0x00,0x00,0x00,0x00,0x00,0x00,0x00,0x00,0x00,0x00,0x00,0x00,
 0x00,0x00,0x00,0x00,0x00,0x00,0x00,0x00,0x00,0x00,0x00,0x00,0x00,0x00,0x00,
 0x00,0x00,0x00,0x00,0x00,0x00,0x00,0x00,0x00,0x00,0x00,0x00,0x00,0x00,0x00,
 0x00,0x00,0x00,0xfc,0x3f,0x00,0x00,0x00,0x00,0x00,0x00,0xfc,0x3f,0x00,0x00,
 0x00,0x00,0x00,0x00,0xfc,0x3f,0x00,0x00,0x00,0x00,0x00,0x00,0xfc,0x3f,0x00,
 0x00,0x00,0x00,0x00,0x00,0x00,0x00,0x00,0x00,0x00,0x00,0x00,0x00,0x00,0x00,
 0x00,0x00,0x00,0x00,0x00,0x00,0x00,0x00,0x00,0x00,0x00,0x00,0x00,0x00,0x00,
 0x00,0x00,0x00,0x00,0x00,0x00,0x00,0x00,0x00,0x00,0x00,0x00,0x00,0x00,0x00,
 0xe0,0x07,0x00,0x00,0x00,0x00,0x00,0x00,0xe0,0x07,0x00,0x00,0x00,0x00,0x00,
 0x00,0xe0,0x07,0x00,0x00,0x00,0x00,0x00,0x00,0xe0,0x07,0x00,0x00,0x00,0x00,
 0x00,0x00,0xe0,0x07,0x00,0x00,0x00,0x00,0x00,0x00,0xe0,0x07,0x00,0x00,0x00,
 0x00,0x00,0x00,0xe0,0x07,0x00,0x00,0x00,0x00,0x00,0x00,0xe0,0x07,0x00,0x00,
 0x00,0x00,0x00,0x40,0xe0,0x07,0x02,0x00,0x00,0x00,0x00,0xc0,0xe0,0x07,0x03,
 0x00,0x00,0x00,0x00,0xc0,0xe1,0x87,0x03,0x00,0x00,0x00,0x00,0xc0,0xe3,0xc7,
 0x03,0x00,0x00,0x00,0x00,0xc0,0xff,0xff,0x03,0x00,0x00,0x00,0x00,0xc0,0xff,
 0xff,0x03,0x00,0x00,0x00,0x00,0xc0,0xff,0xff,0x03,0x00,0x00,0x00,0x00,0xc0,
 0xff,0xff,0x03,0x00,0x00,0x00,0x00,0x80,0xff,0xff,0x01,0x00,0x00,0x00,0x00,
 0x80,0xff,0xff,0x01,0x00,0x00,0x00,0x00,0x00,0xfe,0x7f,0x00,0x00,0x00,0x00,
 0x00,0x00,0xfc,0x3f,0x00,0x00,0x00,0x00,0x00,0x00,0xf8,0x0f,0x00,0x00,0x00,
 0x00,0x00,0x00,0xe0,0x07,0x00,0x00,0x00,0x00,0x00,0x00,0xc0,0x03,0x00,0x00,
 0x00,0x00,0x00,0x00,0x80,0x01,0x00,0x00,0x00,0x00,0x00,0x00,0x00,0x00,0x00,
 0x00,0x00 };
